<svg xmlns="http://www.w3.org/2000/svg" xmlns:xlink="http://www.w3.org/1999/xlink" width="500" zoomAndPan="magnify" viewBox="0 0 375 374.999991" height="500" preserveAspectRatio="xMidYMid meet" version="1.2"><defs><clipPath id="9fda95e774"><path d="M 103.613281 167.003906 L 271.386719 167.003906 L 271.386719 207.996094 L 103.613281 207.996094 Z M 103.613281 167.003906 "/></clipPath><clipPath id="55c6a8ec9c"><path d="M 103.632812 167.003906 L 271.359375 167.003906 L 271.359375 207.984375 L 103.632812 207.984375 Z M 103.632812 167.003906 "/></clipPath></defs><g id="367dbc0e31"><g clip-rule="nonzero" clip-path="url(#9fda95e774)"><path style=" stroke:none;fill-rule:nonzero;fill:#ff3131;fill-opacity:1;" d="M 103.613281 167.003906 L 271.425781 167.003906 L 271.425781 207.996094 L 103.613281 207.996094 Z M 103.613281 167.003906 "/></g><g clip-rule="nonzero" clip-path="url(#55c6a8ec9c)"><path style="fill:none;stroke-width:2;stroke-linecap:butt;stroke-linejoin:miter;stroke:#ff3131;stroke-opacity:1;stroke-miterlimit:4;" d="M -0.000657593 -0.000103978 L 223.634774 -0.000103978 L 223.634774 54.640525 L -0.000657593 54.640525 Z M -0.000657593 -0.000103978 " transform="matrix(0.75,0,0,0.75,103.633306,167.003984)"/></g><g style="fill:#ffffff;fill-opacity:1;"><g transform="translate(117.219812, 194.484918)"><path style="stroke:none" d="M 9.140625 0 L 9.265625 -1.46875 L 9.265625 -6.5625 C 9.265625 -7.375 9.148438 -7.992188 8.921875 -8.421875 C 8.703125 -8.859375 8.410156 -9.15625 8.046875 -9.3125 C 7.691406 -9.476562 7.332031 -9.5625 6.96875 -9.5625 C 6.28125 -9.5625 5.660156 -9.394531 5.109375 -9.0625 C 4.566406 -8.726562 4.023438 -8.378906 3.484375 -8.015625 L 3.484375 -1.984375 C 3.484375 -1.410156 3.539062 -0.988281 3.65625 -0.71875 C 3.78125 -0.457031 4 -0.21875 4.3125 0 L 1.390625 0 L 1.515625 -1.46875 L 1.515625 -9.671875 C 1.367188 -9.773438 1.171875 -9.859375 0.921875 -9.921875 C 0.679688 -9.992188 0.445312 -10.039062 0.21875 -10.0625 L 0.21875 -10.140625 L 3.59375 -10.46875 L 3.484375 -8.890625 L 3.484375 -8.484375 C 3.867188 -8.734375 4.300781 -9.015625 4.78125 -9.328125 C 5.269531 -9.640625 5.800781 -9.910156 6.375 -10.140625 C 6.945312 -10.367188 7.550781 -10.484375 8.1875 -10.484375 C 8.65625 -10.484375 9.125 -10.382812 9.59375 -10.1875 C 10.0625 -9.988281 10.453125 -9.609375 10.765625 -9.046875 C 11.078125 -8.492188 11.234375 -7.675781 11.234375 -6.59375 L 11.234375 -1.984375 C 11.234375 -1.410156 11.289062 -0.988281 11.40625 -0.71875 C 11.53125 -0.457031 11.75 -0.21875 12.0625 0 Z M 9.140625 0 "/></g></g><g style="fill:#ffffff;fill-opacity:1;"><g transform="translate(129.710511, 194.484918)"><path style="stroke:none" d="M 10.71875 -2.140625 L 10.828125 -2.046875 C 10.515625 -1.453125 9.945312 -0.9375 9.125 -0.5 C 8.3125 -0.0625 7.359375 0.15625 6.265625 0.15625 C 5.273438 0.15625 4.367188 -0.0390625 3.546875 -0.4375 C 2.734375 -0.84375 2.082031 -1.425781 1.59375 -2.1875 C 1.101562 -2.945312 0.859375 -3.863281 0.859375 -4.9375 C 0.859375 -6.09375 1.132812 -7.082031 1.6875 -7.90625 C 2.238281 -8.726562 2.96875 -9.363281 3.875 -9.8125 C 4.78125 -10.257812 5.742188 -10.484375 6.765625 -10.484375 C 7.648438 -10.484375 8.382812 -10.328125 8.96875 -10.015625 C 9.550781 -9.710938 9.984375 -9.335938 10.265625 -8.890625 C 10.546875 -8.441406 10.679688 -7.988281 10.671875 -7.53125 C 10.660156 -7.082031 10.519531 -6.703125 10.25 -6.390625 C 9.976562 -6.085938 9.570312 -5.9375 9.03125 -5.9375 L 2.921875 -5.9375 C 2.941406 -4.96875 3.125 -4.09375 3.46875 -3.3125 C 3.820312 -2.53125 4.3125 -1.914062 4.9375 -1.46875 C 5.570312 -1.019531 6.316406 -0.796875 7.171875 -0.796875 C 7.554688 -0.796875 7.976562 -0.84375 8.4375 -0.9375 C 8.90625 -1.039062 9.347656 -1.191406 9.765625 -1.390625 C 10.191406 -1.585938 10.507812 -1.835938 10.71875 -2.140625 Z M 6 -10.109375 C 5.132812 -10.109375 4.421875 -9.769531 3.859375 -9.09375 C 3.296875 -8.425781 2.984375 -7.488281 2.921875 -6.28125 L 8.1875 -6.34375 C 8.4375 -6.34375 8.609375 -6.46875 8.703125 -6.71875 C 8.804688 -6.976562 8.828125 -7.289062 8.765625 -7.65625 C 8.703125 -8.03125 8.5625 -8.40625 8.34375 -8.78125 C 8.125 -9.164062 7.816406 -9.484375 7.421875 -9.734375 C 7.023438 -9.984375 6.550781 -10.109375 6 -10.109375 Z M 6 -10.109375 "/></g></g><g style="fill:#ffffff;fill-opacity:1;"><g transform="translate(140.322239, 194.484918)"><path style="stroke:none" d="M 13.390625 -10.359375 L 16.65625 -10.359375 L 16.65625 -10.28125 C 16.425781 -10.1875 16.210938 -10.0625 16.015625 -9.90625 C 15.816406 -9.75 15.609375 -9.503906 15.390625 -9.171875 C 15.179688 -8.847656 14.941406 -8.382812 14.671875 -7.78125 L 11.25 0.21875 L 11.15625 0.21875 L 8.28125 -6.0625 L 5.59375 0.21875 L 5.484375 0.21875 L 1.328125 -8.90625 L 0.53125 -10.359375 L 4.953125 -10.359375 L 4.953125 -10.28125 C 4.597656 -10.226562 4.285156 -10.125 4.015625 -9.96875 C 3.742188 -9.8125 3.578125 -9.5625 3.515625 -9.21875 C 3.460938 -8.882812 3.570312 -8.410156 3.84375 -7.796875 L 6.328125 -2.28125 L 8.078125 -6.515625 L 6.984375 -8.90625 L 6.1875 -10.359375 L 10.609375 -10.359375 L 10.609375 -10.28125 C 10.253906 -10.226562 9.941406 -10.125 9.671875 -9.96875 C 9.398438 -9.8125 9.234375 -9.5625 9.171875 -9.21875 C 9.117188 -8.882812 9.226562 -8.410156 9.5 -7.796875 L 11.984375 -2.28125 L 14.296875 -7.796875 C 14.546875 -8.410156 14.640625 -8.878906 14.578125 -9.203125 C 14.515625 -9.535156 14.363281 -9.773438 14.125 -9.921875 C 13.894531 -10.066406 13.648438 -10.1875 13.390625 -10.28125 Z M 13.390625 -10.359375 "/></g></g><g style="fill:#ffffff;fill-opacity:1;"><g transform="translate(156.76298, 194.484918)"><path style="stroke:none" d="M 4.84375 0.15625 C 4.007812 0.15625 3.234375 0.0351562 2.515625 -0.203125 C 1.796875 -0.453125 1.207031 -0.753906 0.75 -1.109375 L 1.9375 -3.09375 L 1.984375 -3.09375 C 1.984375 -2.476562 2.171875 -1.953125 2.546875 -1.515625 C 2.929688 -1.078125 3.40625 -0.742188 3.96875 -0.515625 C 4.539062 -0.285156 5.101562 -0.171875 5.65625 -0.171875 C 6.394531 -0.171875 6.90625 -0.351562 7.1875 -0.71875 C 7.476562 -1.082031 7.625 -1.507812 7.625 -2 C 7.625 -2.71875 7.390625 -3.234375 6.921875 -3.546875 C 6.453125 -3.867188 5.796875 -4.097656 4.953125 -4.234375 C 3.859375 -4.398438 3.023438 -4.664062 2.453125 -5.03125 C 1.890625 -5.40625 1.503906 -5.8125 1.296875 -6.25 C 1.097656 -6.6875 1 -7.09375 1 -7.46875 C 1 -8.113281 1.179688 -8.660156 1.546875 -9.109375 C 1.910156 -9.554688 2.398438 -9.894531 3.015625 -10.125 C 3.628906 -10.363281 4.3125 -10.484375 5.0625 -10.484375 C 5.863281 -10.484375 6.609375 -10.363281 7.296875 -10.125 C 7.984375 -9.894531 8.535156 -9.609375 8.953125 -9.265625 L 7.609375 -7.265625 L 7.5625 -7.265625 C 7.59375 -7.890625 7.4375 -8.414062 7.09375 -8.84375 C 6.75 -9.269531 6.316406 -9.597656 5.796875 -9.828125 C 5.273438 -10.054688 4.773438 -10.171875 4.296875 -10.171875 C 3.828125 -10.171875 3.460938 -10.078125 3.203125 -9.890625 C 2.941406 -9.703125 2.757812 -9.472656 2.65625 -9.203125 C 2.550781 -8.929688 2.5 -8.660156 2.5 -8.390625 C 2.5 -7.890625 2.640625 -7.492188 2.921875 -7.203125 C 3.210938 -6.910156 3.570312 -6.691406 4 -6.546875 C 4.4375 -6.410156 4.875 -6.304688 5.3125 -6.234375 C 6.394531 -6.066406 7.207031 -5.8125 7.75 -5.46875 C 8.289062 -5.125 8.65625 -4.742188 8.84375 -4.328125 C 9.03125 -3.921875 9.125 -3.523438 9.125 -3.140625 C 9.125 -2.179688 8.738281 -1.390625 7.96875 -0.765625 C 7.207031 -0.148438 6.164062 0.15625 4.84375 0.15625 Z M 4.84375 0.15625 "/></g></g><g style="fill:#ffffff;fill-opacity:1;"><g transform="translate(166.627432, 194.484918)"><path style="stroke:none" d="M 6.875 -10.46875 C 7.070312 -10.46875 7.257812 -10.445312 7.4375 -10.40625 C 7.613281 -10.375 7.804688 -10.304688 8.015625 -10.203125 L 6.171875 -7.21875 L 6.09375 -7.21875 C 6.375 -7.925781 6.425781 -8.441406 6.25 -8.765625 C 6.070312 -9.097656 5.8125 -9.265625 5.46875 -9.265625 C 5.113281 -9.265625 4.796875 -9.128906 4.515625 -8.859375 C 4.234375 -8.585938 4.007812 -8.234375 3.84375 -7.796875 C 3.675781 -7.367188 3.554688 -6.90625 3.484375 -6.40625 L 3.484375 -1.984375 C 3.484375 -1.410156 3.539062 -0.988281 3.65625 -0.71875 C 3.78125 -0.457031 4 -0.21875 4.3125 0 L 1.40625 0 L 1.515625 -1.46875 L 1.515625 -9.671875 C 1.367188 -9.773438 1.171875 -9.859375 0.921875 -9.921875 C 0.679688 -9.992188 0.445312 -10.039062 0.21875 -10.0625 L 0.21875 -10.140625 L 3.59375 -10.46875 L 3.484375 -8.890625 L 3.484375 -8.203125 L 3.765625 -8.203125 C 4.003906 -8.890625 4.40625 -9.4375 4.96875 -9.84375 C 5.53125 -10.257812 6.164062 -10.46875 6.875 -10.46875 Z M 6.875 -10.46875 "/></g></g><g style="fill:#ffffff;fill-opacity:1;"><g transform="translate(174.100469, 194.484918)"><path style="stroke:none" d="M 10.71875 -2.140625 L 10.828125 -2.046875 C 10.515625 -1.453125 9.945312 -0.9375 9.125 -0.5 C 8.3125 -0.0625 7.359375 0.15625 6.265625 0.15625 C 5.273438 0.15625 4.367188 -0.0390625 3.546875 -0.4375 C 2.734375 -0.84375 2.082031 -1.425781 1.59375 -2.1875 C 1.101562 -2.945312 0.859375 -3.863281 0.859375 -4.9375 C 0.859375 -6.09375 1.132812 -7.082031 1.6875 -7.90625 C 2.238281 -8.726562 2.96875 -9.363281 3.875 -9.8125 C 4.78125 -10.257812 5.742188 -10.484375 6.765625 -10.484375 C 7.648438 -10.484375 8.382812 -10.328125 8.96875 -10.015625 C 9.550781 -9.710938 9.984375 -9.335938 10.265625 -8.890625 C 10.546875 -8.441406 10.679688 -7.988281 10.671875 -7.53125 C 10.660156 -7.082031 10.519531 -6.703125 10.25 -6.390625 C 9.976562 -6.085938 9.570312 -5.9375 9.03125 -5.9375 L 2.921875 -5.9375 C 2.941406 -4.96875 3.125 -4.09375 3.46875 -3.3125 C 3.820312 -2.53125 4.3125 -1.914062 4.9375 -1.46875 C 5.570312 -1.019531 6.316406 -0.796875 7.171875 -0.796875 C 7.554688 -0.796875 7.976562 -0.84375 8.4375 -0.9375 C 8.90625 -1.039062 9.347656 -1.191406 9.765625 -1.390625 C 10.191406 -1.585938 10.507812 -1.835938 10.71875 -2.140625 Z M 6 -10.109375 C 5.132812 -10.109375 4.421875 -9.769531 3.859375 -9.09375 C 3.296875 -8.425781 2.984375 -7.488281 2.921875 -6.28125 L 8.1875 -6.34375 C 8.4375 -6.34375 8.609375 -6.46875 8.703125 -6.71875 C 8.804688 -6.976562 8.828125 -7.289062 8.765625 -7.65625 C 8.703125 -8.03125 8.5625 -8.40625 8.34375 -8.78125 C 8.125 -9.164062 7.816406 -9.484375 7.421875 -9.734375 C 7.023438 -9.984375 6.550781 -10.109375 6 -10.109375 Z M 6 -10.109375 "/></g></g><g style="fill:#ffffff;fill-opacity:1;"><g transform="translate(185.352769, 194.484918)"><path style="stroke:none" d="M 7.984375 -16.421875 C 8.429688 -16.421875 8.9375 -16.359375 9.5 -16.234375 C 10.070312 -16.109375 10.789062 -15.832031 11.65625 -15.40625 L 9.953125 -13.90625 C 9.679688 -14.1875 9.34375 -14.46875 8.9375 -14.75 C 8.53125 -15.03125 8.097656 -15.257812 7.640625 -15.4375 C 7.191406 -15.625 6.742188 -15.71875 6.296875 -15.71875 C 5.429688 -15.71875 4.816406 -15.34375 4.453125 -14.59375 C 4.085938 -13.851562 3.90625 -12.832031 3.90625 -11.53125 L 3.90625 -10.359375 L 7.375 -10.359375 L 7.265625 -9.84375 L 3.90625 -9.84375 L 3.90625 -2.078125 C 3.90625 -1.503906 3.984375 -1.054688 4.140625 -0.734375 C 4.296875 -0.410156 4.695312 -0.191406 5.34375 -0.078125 L 5.34375 0 L 1.609375 0 L 1.9375 -1.328125 L 1.9375 -8.90625 C 1.9375 -9.40625 1.789062 -9.6875 1.5 -9.75 C 1.207031 -9.8125 0.816406 -9.84375 0.328125 -9.84375 L 0.421875 -10.359375 L 1.9375 -10.359375 L 1.9375 -10.875 C 1.9375 -11.757812 2.109375 -12.539062 2.453125 -13.21875 C 2.796875 -13.90625 3.253906 -14.484375 3.828125 -14.953125 C 4.410156 -15.429688 5.0625 -15.796875 5.78125 -16.046875 C 6.5 -16.296875 7.234375 -16.421875 7.984375 -16.421875 Z M 7.984375 -16.421875 "/></g></g><g style="fill:#ffffff;fill-opacity:1;"><g transform="translate(193.487755, 194.484918)"><path style="stroke:none" d="M 3.484375 -2.078125 C 3.484375 -1.503906 3.550781 -1.054688 3.6875 -0.734375 C 3.832031 -0.410156 4.171875 -0.191406 4.703125 -0.078125 L 4.703125 0 L 1.328125 0 L 1.515625 -1.328125 L 1.515625 -14.078125 C 1.515625 -14.503906 1.394531 -14.71875 1.15625 -14.71875 C 0.914062 -14.71875 0.457031 -14.617188 -0.21875 -14.421875 L -0.21875 -14.546875 L 3.59375 -16.34375 L 3.484375 -15.5 Z M 3.484375 -2.078125 "/></g></g><g style="fill:#ffffff;fill-opacity:1;"><g transform="translate(198.505394, 194.484918)"><path style="stroke:none" d="M 10.71875 -2.140625 L 10.828125 -2.046875 C 10.515625 -1.453125 9.945312 -0.9375 9.125 -0.5 C 8.3125 -0.0625 7.359375 0.15625 6.265625 0.15625 C 5.273438 0.15625 4.367188 -0.0390625 3.546875 -0.4375 C 2.734375 -0.84375 2.082031 -1.425781 1.59375 -2.1875 C 1.101562 -2.945312 0.859375 -3.863281 0.859375 -4.9375 C 0.859375 -6.09375 1.132812 -7.082031 1.6875 -7.90625 C 2.238281 -8.726562 2.96875 -9.363281 3.875 -9.8125 C 4.78125 -10.257812 5.742188 -10.484375 6.765625 -10.484375 C 7.648438 -10.484375 8.382812 -10.328125 8.96875 -10.015625 C 9.550781 -9.710938 9.984375 -9.335938 10.265625 -8.890625 C 10.546875 -8.441406 10.679688 -7.988281 10.671875 -7.53125 C 10.660156 -7.082031 10.519531 -6.703125 10.25 -6.390625 C 9.976562 -6.085938 9.570312 -5.9375 9.03125 -5.9375 L 2.921875 -5.9375 C 2.941406 -4.96875 3.125 -4.09375 3.46875 -3.3125 C 3.820312 -2.53125 4.3125 -1.914062 4.9375 -1.46875 C 5.570312 -1.019531 6.316406 -0.796875 7.171875 -0.796875 C 7.554688 -0.796875 7.976562 -0.84375 8.4375 -0.9375 C 8.90625 -1.039062 9.347656 -1.191406 9.765625 -1.390625 C 10.191406 -1.585938 10.507812 -1.835938 10.71875 -2.140625 Z M 6 -10.109375 C 5.132812 -10.109375 4.421875 -9.769531 3.859375 -9.09375 C 3.296875 -8.425781 2.984375 -7.488281 2.921875 -6.28125 L 8.1875 -6.34375 C 8.4375 -6.34375 8.609375 -6.46875 8.703125 -6.71875 C 8.804688 -6.976562 8.828125 -7.289062 8.765625 -7.65625 C 8.703125 -8.03125 8.5625 -8.40625 8.34375 -8.78125 C 8.125 -9.164062 7.816406 -9.484375 7.421875 -9.734375 C 7.023438 -9.984375 6.550781 -10.109375 6 -10.109375 Z M 6 -10.109375 "/></g></g><g style="fill:#ffffff;fill-opacity:1;"><g transform="translate(209.971217, 194.484918)"><path style="stroke:none" d="M 6.34375 0.15625 C 5.363281 0.15625 4.457031 -0.0390625 3.625 -0.4375 C 2.789062 -0.84375 2.117188 -1.425781 1.609375 -2.1875 C 1.109375 -2.945312 0.859375 -3.867188 0.859375 -4.953125 C 0.859375 -6.097656 1.128906 -7.082031 1.671875 -7.90625 C 2.222656 -8.726562 2.945312 -9.363281 3.84375 -9.8125 C 4.738281 -10.257812 5.722656 -10.484375 6.796875 -10.484375 C 7.660156 -10.484375 8.410156 -10.347656 9.046875 -10.078125 C 9.679688 -9.804688 10.160156 -9.46875 10.484375 -9.0625 L 8.5 -6.0625 L 8.453125 -6.0625 C 8.753906 -6.832031 8.84375 -7.523438 8.71875 -8.140625 C 8.601562 -8.753906 8.320312 -9.238281 7.875 -9.59375 C 7.425781 -9.957031 6.851562 -10.132812 6.15625 -10.125 C 5.195312 -10.125 4.414062 -9.757812 3.8125 -9.03125 C 3.21875 -8.3125 2.921875 -7.300781 2.921875 -6 C 2.921875 -5.019531 3.097656 -4.132812 3.453125 -3.34375 C 3.816406 -2.550781 4.320312 -1.925781 4.96875 -1.46875 C 5.613281 -1.019531 6.367188 -0.796875 7.234375 -0.796875 C 7.578125 -0.796875 7.945312 -0.832031 8.34375 -0.90625 C 8.75 -0.988281 9.128906 -1.117188 9.484375 -1.296875 C 9.847656 -1.484375 10.140625 -1.71875 10.359375 -2 L 10.46875 -1.921875 C 10.15625 -1.347656 9.648438 -0.859375 8.953125 -0.453125 C 8.265625 -0.046875 7.394531 0.15625 6.34375 0.15625 Z M 6.34375 0.15625 "/></g></g><g style="fill:#ffffff;fill-opacity:1;"><g transform="translate(220.98865, 194.484918)"><path style="stroke:none" d="M 3.203125 0.34375 L 1.625 -0.1875 L 1.6875 -1.46875 L 1.6875 -11.640625 C 1.6875 -12.097656 1.5625 -12.328125 1.3125 -12.328125 C 1.0625 -12.335938 0.585938 -12.242188 -0.109375 -12.046875 L -0.109375 -12.171875 L 3.828125 -13.984375 L 3.65625 -13.109375 L 3.65625 -10.359375 L 6.234375 -10.359375 L 6.125 -9.84375 L 3.65625 -9.84375 L 3.65625 -0.390625 L 6.234375 -0.46875 L 6.234375 -0.390625 L 3.65625 0.34375 Z M 3.203125 0.34375 "/></g></g><g style="fill:#ffffff;fill-opacity:1;"><g transform="translate(227.75712, 194.484918)"><path style="stroke:none" d="M 2.375 -12.6875 C 2.019531 -12.6875 1.722656 -12.800781 1.484375 -13.03125 C 1.242188 -13.269531 1.125 -13.566406 1.125 -13.921875 C 1.125 -14.265625 1.242188 -14.550781 1.484375 -14.78125 C 1.722656 -15.019531 2.019531 -15.140625 2.375 -15.140625 C 2.71875 -15.140625 3.003906 -15.019531 3.234375 -14.78125 C 3.472656 -14.550781 3.59375 -14.265625 3.59375 -13.921875 C 3.59375 -13.566406 3.472656 -13.269531 3.234375 -13.03125 C 3.003906 -12.800781 2.71875 -12.6875 2.375 -12.6875 Z M 1.390625 0 L 1.515625 -1.46875 L 1.515625 -9.671875 C 1.367188 -9.773438 1.171875 -9.859375 0.921875 -9.921875 C 0.679688 -9.992188 0.445312 -10.039062 0.21875 -10.0625 L 0.21875 -10.140625 L 3.59375 -10.46875 L 3.484375 -8.890625 L 3.484375 -1.984375 C 3.484375 -1.410156 3.539062 -0.988281 3.65625 -0.71875 C 3.78125 -0.457031 4 -0.21875 4.3125 0 Z M 1.390625 0 "/></g></g><g style="fill:#ffffff;fill-opacity:1;"><g transform="translate(232.497171, 194.484918)"><path style="stroke:none" d="M 6.390625 -10.484375 C 7.472656 -10.484375 8.429688 -10.257812 9.265625 -9.8125 C 10.097656 -9.363281 10.75 -8.738281 11.21875 -7.9375 C 11.6875 -7.144531 11.921875 -6.222656 11.921875 -5.171875 C 11.921875 -4.128906 11.6875 -3.207031 11.21875 -2.40625 C 10.75 -1.601562 10.097656 -0.972656 9.265625 -0.515625 C 8.429688 -0.0664062 7.472656 0.15625 6.390625 0.15625 C 5.304688 0.15625 4.347656 -0.0664062 3.515625 -0.515625 C 2.679688 -0.972656 2.03125 -1.597656 1.5625 -2.390625 C 1.09375 -3.191406 0.859375 -4.117188 0.859375 -5.171875 C 0.859375 -6.222656 1.09375 -7.144531 1.5625 -7.9375 C 2.03125 -8.738281 2.679688 -9.363281 3.515625 -9.8125 C 4.347656 -10.257812 5.304688 -10.484375 6.390625 -10.484375 Z M 7.21875 -0.21875 C 8.0625 -0.21875 8.71875 -0.53125 9.1875 -1.15625 C 9.664062 -1.789062 9.90625 -2.664062 9.90625 -3.78125 C 9.90625 -4.519531 9.800781 -5.265625 9.59375 -6.015625 C 9.394531 -6.765625 9.101562 -7.445312 8.71875 -8.0625 C 8.34375 -8.6875 7.890625 -9.1875 7.359375 -9.5625 C 6.828125 -9.9375 6.222656 -10.125 5.546875 -10.125 C 4.710938 -10.125 4.054688 -9.804688 3.578125 -9.171875 C 3.097656 -8.535156 2.859375 -7.664062 2.859375 -6.5625 C 2.859375 -5.820312 2.960938 -5.078125 3.171875 -4.328125 C 3.378906 -3.578125 3.671875 -2.890625 4.046875 -2.265625 C 4.421875 -1.648438 4.878906 -1.15625 5.421875 -0.78125 C 5.960938 -0.40625 6.5625 -0.21875 7.21875 -0.21875 Z M 7.21875 -0.21875 "/></g></g><g style="fill:#ffffff;fill-opacity:1;"><g transform="translate(245.051923, 194.484918)"><path style="stroke:none" d="M 9.140625 0 L 9.265625 -1.46875 L 9.265625 -6.5625 C 9.265625 -7.375 9.148438 -7.992188 8.921875 -8.421875 C 8.703125 -8.859375 8.410156 -9.15625 8.046875 -9.3125 C 7.691406 -9.476562 7.332031 -9.5625 6.96875 -9.5625 C 6.28125 -9.5625 5.660156 -9.394531 5.109375 -9.0625 C 4.566406 -8.726562 4.023438 -8.378906 3.484375 -8.015625 L 3.484375 -1.984375 C 3.484375 -1.410156 3.539062 -0.988281 3.65625 -0.71875 C 3.78125 -0.457031 4 -0.21875 4.3125 0 L 1.390625 0 L 1.515625 -1.46875 L 1.515625 -9.671875 C 1.367188 -9.773438 1.171875 -9.859375 0.921875 -9.921875 C 0.679688 -9.992188 0.445312 -10.039062 0.21875 -10.0625 L 0.21875 -10.140625 L 3.59375 -10.46875 L 3.484375 -8.890625 L 3.484375 -8.484375 C 3.867188 -8.734375 4.300781 -9.015625 4.78125 -9.328125 C 5.269531 -9.640625 5.800781 -9.910156 6.375 -10.140625 C 6.945312 -10.367188 7.550781 -10.484375 8.1875 -10.484375 C 8.65625 -10.484375 9.125 -10.382812 9.59375 -10.1875 C 10.0625 -9.988281 10.453125 -9.609375 10.765625 -9.046875 C 11.078125 -8.492188 11.234375 -7.675781 11.234375 -6.59375 L 11.234375 -1.984375 C 11.234375 -1.410156 11.289062 -0.988281 11.40625 -0.71875 C 11.53125 -0.457031 11.75 -0.21875 12.0625 0 Z M 9.140625 0 "/></g></g></g></svg>